<svg width="82" height="82" viewBox="0 0 82 82" fill="none" xmlns="http://www.w3.org/2000/svg">
<g clip-path="url(#clip0_35_507)">
<path fill-rule="evenodd" clip-rule="evenodd" d="M41 61.5C52.3218 61.5 61.5 52.3218 61.5 41C61.5 29.6782 52.3218 20.5 41 20.5C29.6782 20.5 20.5 29.6782 20.5 41C20.5 52.3218 29.6782 61.5 41 61.5ZM41 54.6667C48.5478 54.6667 54.6667 48.5478 54.6667 41C54.6667 33.4521 48.5478 27.3333 41 27.3333C33.4521 27.3333 27.3333 33.4521 27.3333 41C27.3333 48.5478 33.4521 54.6667 41 54.6667Z" fill="#ffffff"/>
<path d="M61.5 15.375C58.6695 15.375 56.375 17.6696 56.375 20.5C56.375 23.3304 58.6695 25.625 61.5 25.625C64.3305 25.625 66.625 23.3304 66.625 20.5C66.625 17.6696 64.3305 15.375 61.5 15.375Z" fill="#ffffff"/>
<path fill-rule="evenodd" clip-rule="evenodd" d="M2.43749 12.2108C0 16.9946 0 23.257 0 35.7818V46.2182C0 58.7429 0 65.0055 2.43749 69.7891C4.58156 73.9972 8.00275 77.4184 12.2108 79.5624C16.9946 82 23.257 82 35.7818 82H46.2182C58.7429 82 65.0055 82 69.7891 79.5624C73.9972 77.4184 77.4184 73.9972 79.5624 69.7891C82 65.0055 82 58.7429 82 46.2182V35.7818C82 23.257 82 16.9946 79.5624 12.2108C77.4184 8.00275 73.9972 4.58156 69.7891 2.43749C65.0055 0 58.7429 0 46.2182 0H35.7818C23.257 0 16.9946 0 12.2108 2.43749C8.00275 4.58156 4.58156 8.00275 2.43749 12.2108ZM46.2182 7.45455H35.7818C29.3964 7.45455 25.0557 7.46036 21.7005 7.73446C18.4323 8.00149 16.7609 8.48547 15.5951 9.07952C12.7897 10.5089 10.5089 12.7897 9.07952 15.5951C8.48547 16.7609 8.00149 18.4323 7.73446 21.7005C7.46036 25.0557 7.45455 29.3964 7.45455 35.7818V46.2182C7.45455 52.6037 7.46036 56.9442 7.73446 60.2994C8.00149 63.5679 8.48547 65.2392 9.07952 66.4051C10.5089 69.2102 12.7897 71.491 15.5951 72.9204C16.7609 73.5145 18.4323 73.9987 21.7005 74.2655C25.0557 74.5395 29.3964 74.5455 35.7818 74.5455H46.2182C52.6037 74.5455 56.9442 74.5395 60.2994 74.2655C63.5679 73.9987 65.2392 73.5145 66.4051 72.9204C69.2102 71.491 71.491 69.2102 72.9204 66.4051C73.5145 65.2392 73.9987 63.5679 74.2655 60.2994C74.5395 56.9442 74.5455 52.6037 74.5455 46.2182V35.7818C74.5455 29.3964 74.5395 25.0557 74.2655 21.7005C73.9987 18.4323 73.5145 16.7609 72.9204 15.5951C71.491 12.7897 69.2102 10.5089 66.4051 9.07952C65.2392 8.48547 63.5679 8.00149 60.2994 7.73446C56.9442 7.46036 52.6037 7.45455 46.2182 7.45455Z" fill="#ffffff"/>
</g>
<defs>
<clipPath id="clip0_35_507">
<rect width="82" height="82" fill="white"/>
</clipPath>
</defs>
</svg>
