<?xml version="1.0" encoding="UTF-8"?>
<svg id="Layer_1" data-name="Layer 1" xmlns="http://www.w3.org/2000/svg" viewBox="0 0 685.35 408.12">
  <defs>
    <style>
      .cls-1 {
        fill: #fcb749;
      }

      .cls-1, .cls-2, .cls-3, .cls-4, .cls-5, .cls-6 {
        stroke-width: 0px;
      }

      .cls-2 {
        fill: #58775e;
      }

      .cls-3 {
        fill: #154044;
      }

      .cls-4 {
        fill: #28356b;
      }

      .cls-5 {
        fill: #010101;
      }

      .cls-6 {
        fill: #7e7fad;
      }
    </style>
  </defs>
  <rect class="cls-5" y="290.14" width="144.16" height="33.04"/>
  <path class="cls-5" d="M55.64,322.8v72.86c0,6.88,5.58,12.46,12.46,12.46h8.12c6.88,0,12.46-5.58,12.46-12.46v-72.86c0-4.17-3.38-7.55-7.55-7.55h-17.94c-4.17,0-7.55,3.38-7.55,7.55Z"/>
  <path class="cls-4" d="M6.83,276.33h3.42c3.61,0,6.54-2.93,6.54-6.54v-114.37c0-3.61-2.93-6.54-6.54-6.54h-3.42c-3.61,0-6.54,2.93-6.54,6.54v114.37c0,3.62,2.93,6.54,6.54,6.54Z"/>
  <path class="cls-6" d="M38.66,276.06h3.3c3.65,0,6.6-2.96,6.6-6.6V123.33c0-3.65-2.96-6.6-6.6-6.6h-3.3c-3.65,0-6.6,2.96-6.6,6.6v146.13c0,3.64,2.95,6.6,6.6,6.6Z"/>
  <path class="cls-1" d="M70.31,275.92h3.55c3.58,0,6.48-2.9,6.48-6.48V88.56c0-3.58-2.9-6.48-6.48-6.48h-3.55c-3.58,0-6.48,2.9-6.48,6.48v180.87c0,3.59,2.9,6.49,6.48,6.49Z"/>
  <path class="cls-2" d="M102.19,276.01h3.31c3.64,0,6.6-2.95,6.6-6.6V54.74c0-3.64-2.95-6.6-6.6-6.6h-3.31c-3.64,0-6.6,2.95-6.6,6.6v214.67c0,3.64,2.96,6.6,6.6,6.6Z"/>
  <path class="cls-3" d="M133.97,276.01h3.29c3.65,0,6.61-2.96,6.61-6.61V22.34c0-3.65-2.96-6.61-6.61-6.61h-3.29c-3.65,0-6.61,2.96-6.61,6.61v247.06c0,3.65,2.96,6.61,6.61,6.61Z"/>
  <path class="cls-3" d="M683.16,259.4l1.52-3.09c1.59-3.24.26-7.15-2.97-8.75L180.68.67c-3.24-1.59-7.15-.26-8.75,2.97l-1.52,3.09c-1.59,3.24-.26,7.15,2.97,8.75l501.03,246.9c3.24,1.59,7.16.26,8.75-2.98Z"/>
  <path class="cls-2" d="M611.24,259.14l1.46-2.97c1.61-3.27.27-7.22-3-8.83L181.06,36.11c-3.27-1.61-7.22-.27-8.83,3l-1.47,2.97c-1.61,3.27-.27,7.22,3,8.83l428.65,211.23c3.27,1.61,7.22.26,8.83-3Z"/>
  <path class="cls-1" d="M539.94,259.95l1.5-3.05c1.6-3.25.26-7.17-2.98-8.77L180.76,71.86c-3.25-1.6-7.17-.26-8.77,2.98l-1.5,3.05c-1.6,3.25-.26,7.17,2.98,8.77l357.71,176.27c3.23,1.61,7.16.27,8.76-2.98Z"/>
  <path class="cls-6" d="M468.11,259.48l1.46-2.95c1.61-3.27.27-7.23-3.01-8.85L181.01,106.97c-3.27-1.61-7.23-.27-8.85,3.01l-1.46,2.95c-1.61,3.27-.27,7.23,3.01,8.85l285.54,140.71c3.28,1.61,7.24.27,8.86-3.01Z"/>
  <path class="cls-4" d="M395.53,259.53l1.54-3.13c1.59-3.23.26-7.13-2.96-8.72l-213.27-105.09c-3.23-1.59-7.13-.26-8.72,2.96l-1.54,3.13c-1.59,3.23-.26,7.13,2.96,8.72l213.27,105.09c3.23,1.59,7.13.27,8.72-2.96Z"/>
</svg>